<svg xmlns="http://www.w3.org/2000/svg" xmlns:xlink="http://www.w3.org/1999/xlink" width="340" zoomAndPan="magnify" viewBox="0 0 255 155.999997" height="208" preserveAspectRatio="xMidYMid meet" version="1.0"><defs><g/><clipPath id="21a7db8438"><path d="M 0 84.804688 L 130.5 84.804688 L 130.5 115.554688 L 0 115.554688 Z M 0 84.804688 " clip-rule="nonzero"/></clipPath></defs><g clip-path="url(#21a7db8438)"><path fill="#000000" d="M 4.460938 114.4375 C 4.785156 113.695312 4.660156 112.792969 4.128906 112.246094 C 4.078125 112.195312 4.027344 112.121094 3.964844 112.082031 C 3.859375 112.019531 3.757812 111.925781 3.644531 111.835938 C 3.644531 111.835938 3.632812 111.824219 3.632812 111.816406 C 3.625 111.816406 3.625 111.816406 3.625 111.816406 C 3.15625 111.371094 2.710938 110.671875 2.433594 110.148438 C 2.421875 109.839844 2.441406 109.492188 2.492188 109.089844 C 2.710938 107.046875 4.390625 104.917969 7.527344 102.675781 C 9.300781 101.371094 11.527344 100.125 14.21875 98.945312 C 17.015625 97.75 20.394531 96.714844 24.351562 95.851562 C 32.925781 94.039062 41.203125 93.597656 49.191406 94.523438 C 57.0625 95.460938 65.144531 96.324219 73.449219 97.105469 C 77.996094 97.617188 82.597656 97.90625 87.21875 97.96875 C 91.835938 98.03125 96.707031 97.730469 101.800781 97.074219 C 112.898438 95.65625 121.121094 93.09375 126.457031 89.394531 C 127.667969 88.53125 128.769531 87.769531 129.789062 87.09375 C 129.886719 86.714844 130 86.34375 130.109375 85.96875 C 130.058594 85.578125 130.003906 85.191406 129.949219 84.808594 C 128.691406 85.671875 127.261719 86.648438 125.597656 87.78125 C 120.125 91.378906 112.191406 93.855469 101.75 95.203125 C 92.882812 96.386719 84.429688 96.394531 76.433594 95.242188 C 68.324219 94.101562 60.179688 93.25 52.019531 92.671875 C 47.59375 92.375 43.078125 92.292969 38.480469 92.457031 C 33.890625 92.613281 29.179688 93.238281 24.339844 94.308594 C 19.617188 95.378906 15.691406 96.589844 12.574219 97.925781 C 9.578125 99.367188 7.207031 100.792969 5.445312 102.214844 C 2.050781 105.039062 0.414062 107.671875 0.566406 110.117188 L 0.660156 110.953125 C 0.679688 111.175781 0.710938 111.382812 0.753906 111.578125 C 0.785156 112.0625 0.785156 112.554688 0.734375 112.988281 C 0.703125 113.296875 0.722656 113.613281 0.753906 113.921875 C 0.835938 114.695312 1.65625 115.433594 2.546875 115.546875 " fill-opacity="1" fill-rule="nonzero"/></g><path stroke-linecap="butt" transform="matrix(0.75, 0, 0, 0.75, 99.199823, 0.318807)" fill="none" stroke-linejoin="miter" d="M -0.000805415 1.002007 L 207.733582 1.002007 " stroke="#000000" stroke-width="2" stroke-opacity="1" stroke-miterlimit="4"/><path stroke-linecap="butt" transform="matrix(0, 0.75, -0.75, 0, 254.875446, 0.205385)" fill="none" stroke-linejoin="miter" d="M 0.00219508 1.000595 L 207.731374 1.000595 " stroke="#000000" stroke-width="2" stroke-opacity="1" stroke-miterlimit="4"/><path stroke-linecap="butt" transform="matrix(0.75, 0, 0, 0.75, 99.199823, 154.381003)" fill="none" stroke-linejoin="miter" d="M -0.000805415 1.002413 L 207.733582 1.002413 " stroke="#000000" stroke-width="2" stroke-opacity="1" stroke-miterlimit="4"/><path stroke-linecap="butt" transform="matrix(0, 0.75, -0.75, 0, 100.816021, 0.202607)" fill="none" stroke-linejoin="miter" d="M 0.000690818 0.999487 L 103.86528 0.999487 " stroke="#000000" stroke-width="2" stroke-opacity="1" stroke-miterlimit="4"/><path stroke-linecap="butt" transform="matrix(0, 0.75, -0.75, 0, 100.817435, 116.494725)" fill="none" stroke-linejoin="miter" d="M 0.00182459 1.001371 L 52.673703 1.001371 " stroke="#000000" stroke-width="2" stroke-opacity="1" stroke-miterlimit="4"/><g fill="#000000" fill-opacity="1"><g transform="translate(127.701163, 112.934518)"><g><path d="M 26.53125 5.875 C 28.226562 4.757812 30.019531 3.238281 31.90625 1.3125 C 33.800781 -0.601562 35.710938 -2.734375 37.640625 -5.078125 C 39.566406 -7.429688 41.394531 -9.785156 43.125 -12.140625 C 44.851562 -14.492188 46.398438 -16.648438 47.765625 -18.609375 C 49.140625 -20.566406 50.253906 -22.066406 51.109375 -23.109375 C 51.304688 -23.304688 51.628906 -23.40625 52.078125 -23.40625 C 52.535156 -23.40625 52.765625 -23.273438 52.765625 -23.015625 C 51.398438 -21.242188 49.785156 -19.035156 47.921875 -16.390625 C 46.066406 -13.753906 44.046875 -11 41.859375 -8.125 C 39.671875 -5.25 37.414062 -2.523438 35.09375 0.046875 C 32.78125 2.628906 30.515625 4.734375 28.296875 6.359375 C 25.753906 8.253906 23.597656 9.132812 21.828125 9 C 20.066406 8.875 18.664062 7.992188 17.625 6.359375 C 16.582031 4.734375 15.847656 2.597656 15.421875 -0.046875 C 14.992188 -2.691406 14.859375 -5.613281 15.015625 -8.8125 C 15.179688 -12.007812 15.609375 -15.238281 16.296875 -18.5 C 16.984375 -21.769531 17.882812 -24.835938 19 -27.703125 C 15.664062 -21.304688 13.082031 -16.554688 11.25 -13.453125 C 9.425781 -10.359375 7.832031 -8.648438 6.46875 -8.328125 C 4.832031 -7.992188 3.394531 -8.429688 2.15625 -9.640625 C 0.914062 -10.847656 0.0664062 -12.644531 -0.390625 -15.03125 C -0.847656 -17.414062 -0.71875 -20.207031 0 -23.40625 C 0.78125 -26.789062 2.082031 -29.476562 3.90625 -31.46875 C 5.738281 -33.46875 7.75 -34.90625 9.9375 -35.78125 C 12.125 -36.664062 14.257812 -37.125 16.34375 -37.15625 C 18.4375 -37.1875 20.171875 -36.910156 21.546875 -36.328125 L 22.421875 -38.078125 C 23.078125 -39.515625 24.003906 -40.394531 25.203125 -40.71875 C 26.410156 -41.050781 27.472656 -41.003906 28.390625 -40.578125 C 29.304688 -40.160156 29.664062 -39.554688 29.46875 -38.765625 C 28.550781 -37.203125 27.585938 -35.097656 26.578125 -32.453125 C 25.566406 -29.804688 24.585938 -26.851562 23.640625 -23.59375 C 22.691406 -20.332031 21.875 -17.019531 21.1875 -13.65625 C 20.507812 -10.289062 20.039062 -7.15625 19.78125 -4.25 C 19.519531 -1.351562 19.550781 1.101562 19.875 3.125 C 20.195312 5.15625 20.878906 6.460938 21.921875 7.046875 C 22.972656 7.640625 24.507812 7.25 26.53125 5.875 Z M 20.953125 -34.953125 C 18.472656 -35.929688 16.269531 -35.878906 14.34375 -34.796875 C 12.414062 -33.722656 10.796875 -32.0625 9.484375 -29.8125 C 8.179688 -27.5625 7.203125 -25.113281 6.546875 -22.46875 C 5.898438 -19.820312 5.625 -17.375 5.71875 -15.125 C 5.820312 -12.875 6.296875 -11.257812 7.140625 -10.28125 C 7.671875 -10.675781 8.457031 -11.738281 9.5 -13.46875 C 10.539062 -15.195312 11.710938 -17.300781 13.015625 -19.78125 C 14.328125 -22.257812 15.664062 -24.835938 17.03125 -27.515625 C 18.40625 -30.191406 19.710938 -32.671875 20.953125 -34.953125 Z M 20.953125 -34.953125 "/></g></g></g><g fill="#000000" fill-opacity="1"><g transform="translate(178.802819, 112.934518)"><g><path d="M 28.203125 -29.28125 C 30.085938 -29.082031 31.550781 -28.179688 32.59375 -26.578125 C 33.644531 -24.984375 34.378906 -22.941406 34.796875 -20.453125 C 35.222656 -17.972656 35.421875 -15.3125 35.390625 -12.46875 C 35.359375 -9.632812 35.175781 -6.894531 34.84375 -4.25 C 34.519531 -1.613281 34.132812 0.648438 33.6875 2.546875 C 37.332031 1.628906 40.800781 -0.179688 44.09375 -2.890625 C 47.394531 -5.597656 50.53125 -8.742188 53.5 -12.328125 C 56.46875 -15.921875 59.226562 -19.515625 61.78125 -23.109375 C 61.90625 -23.304688 62.210938 -23.40625 62.703125 -23.40625 C 63.191406 -23.40625 63.4375 -23.273438 63.4375 -23.015625 C 58.476562 -15.703125 53.453125 -9.644531 48.359375 -4.84375 C 43.273438 -0.0507812 38.21875 3 33.1875 4.3125 C 31.945312 8.75 30.332031 12.515625 28.34375 15.609375 C 26.351562 18.710938 24.210938 21.257812 21.921875 23.25 C 19.640625 25.238281 17.40625 26.753906 15.21875 27.796875 C 13.03125 28.847656 11.101562 29.503906 9.4375 29.765625 C 7.78125 30.023438 6.5625 30.023438 5.78125 29.765625 C 4.601562 29.304688 3.671875 28.359375 2.984375 26.921875 C 2.296875 25.484375 2.097656 23.785156 2.390625 21.828125 C 2.691406 19.867188 3.691406 17.8125 5.390625 15.65625 C 7.085938 13.507812 9.695312 11.472656 13.21875 9.546875 C 16.738281 7.617188 21.40625 5.972656 27.21875 4.609375 C 27.875 2.191406 28.460938 -0.46875 28.984375 -3.375 C 29.503906 -6.28125 29.894531 -9.132812 30.15625 -11.9375 C 30.414062 -14.75 30.546875 -17.34375 30.546875 -19.71875 C 30.546875 -22.101562 30.332031 -24.03125 29.90625 -25.5 C 29.488281 -26.96875 28.820312 -27.769531 27.90625 -27.90625 C 25.8125 -28.164062 23.703125 -27.332031 21.578125 -25.40625 C 19.460938 -23.476562 17.359375 -20.769531 15.265625 -17.28125 C 13.179688 -13.789062 11.160156 -9.773438 9.203125 -5.234375 C 7.242188 -0.703125 5.382812 4.039062 3.625 9 C 3.03125 10.632812 2.175781 11.664062 1.0625 12.09375 C -0.0390625 12.519531 -1.015625 12.4375 -1.859375 11.84375 C -2.710938 11.257812 -3.070312 10.3125 -2.9375 9 C -2.613281 1.625 -2.125 -5.765625 -1.46875 -13.171875 C -0.8125 -20.578125 0.0507812 -27.738281 1.125 -34.65625 C 2.195312 -41.570312 3.484375 -48 4.984375 -53.9375 C 6.492188 -59.882812 8.226562 -65.09375 10.1875 -69.5625 C 12.144531 -74.03125 14.347656 -77.519531 16.796875 -80.03125 C 19.242188 -82.550781 21.9375 -83.8125 24.875 -83.8125 C 26.832031 -83.8125 28.507812 -83.054688 29.90625 -81.546875 C 31.3125 -80.046875 32.128906 -77.828125 32.359375 -74.890625 C 32.585938 -71.960938 31.984375 -68.3125 30.546875 -63.9375 C 29.109375 -59.5625 26.578125 -54.46875 22.953125 -48.65625 C 19.335938 -42.851562 14.332031 -36.359375 7.9375 -29.171875 C 7.664062 -28.191406 7.367188 -26.507812 7.046875 -24.125 C 6.722656 -21.75 6.378906 -18.960938 6.015625 -15.765625 C 5.660156 -12.566406 5.300781 -9.21875 4.9375 -5.71875 C 4.582031 -2.226562 4.207031 1.113281 3.8125 4.3125 C 6.625 -2.675781 9.300781 -8.734375 11.84375 -13.859375 C 14.394531 -18.984375 16.988281 -22.914062 19.625 -25.65625 C 22.269531 -28.394531 25.128906 -29.601562 28.203125 -29.28125 Z M 8.21875 -31.71875 C 14.09375 -38.707031 18.691406 -44.957031 22.015625 -50.46875 C 25.347656 -55.988281 27.679688 -60.785156 29.015625 -64.859375 C 30.359375 -68.941406 30.929688 -72.285156 30.734375 -74.890625 C 30.546875 -77.503906 29.863281 -79.429688 28.6875 -80.671875 C 27.507812 -81.910156 26.070312 -82.46875 24.375 -82.34375 C 23.132812 -82.269531 21.863281 -81.222656 20.5625 -79.203125 C 19.257812 -77.179688 17.984375 -74.488281 16.734375 -71.125 C 15.492188 -67.769531 14.316406 -63.9375 13.203125 -59.625 C 12.097656 -55.3125 11.117188 -50.773438 10.265625 -46.015625 C 9.421875 -41.253906 8.738281 -36.488281 8.21875 -31.71875 Z M 6.46875 28.6875 C 7.113281 28.75 8.269531 28.453125 9.9375 27.796875 C 11.601562 27.148438 13.460938 26.007812 15.515625 24.375 C 17.578125 22.75 19.617188 20.445312 21.640625 17.46875 C 23.660156 14.5 25.390625 10.765625 26.828125 6.265625 C 21.410156 7.566406 17.066406 9.148438 13.796875 11.015625 C 10.535156 12.878906 8.117188 14.820312 6.546875 16.84375 C 4.984375 18.863281 4.070312 20.753906 3.8125 22.515625 C 3.550781 24.273438 3.695312 25.707031 4.25 26.8125 C 4.8125 27.925781 5.550781 28.550781 6.46875 28.6875 Z M 6.46875 28.6875 "/></g></g></g></svg>